<svg xmlns="http://www.w3.org/2000/svg" xmlns:xlink="http://www.w3.org/1999/xlink" width="100" viewBox="0 0 75 74.999997" height="100" preserveAspectRatio="xMidYMid meet"><defs><clipPath id="e4cd73f269"><path d="M 6.351562 6.351562 L 68.648438 6.351562 L 68.648438 68.648438 L 6.351562 68.648438 Z M 6.351562 6.351562 " clip-rule="nonzero"></path></clipPath><clipPath id="a615ef6a95"><path d="M 37.5 6.351562 C 20.296875 6.351562 6.351562 20.296875 6.351562 37.5 C 6.351562 54.703125 20.296875 68.648438 37.5 68.648438 C 54.703125 68.648438 68.648438 54.703125 68.648438 37.5 C 68.648438 20.296875 54.703125 6.351562 37.5 6.351562 Z M 37.5 6.351562 " clip-rule="nonzero"></path></clipPath><clipPath id="cb471f2c4b"><path d="M 21.117188 17.339844 L 54 17.339844 L 54 57.839844 L 21.117188 57.839844 Z M 21.117188 17.339844 " clip-rule="nonzero"></path></clipPath><clipPath id="71c4bdf0fb"><path d="M 42 54 L 45 54 L 45 57.839844 L 42 57.839844 Z M 42 54 " clip-rule="nonzero"></path></clipPath><clipPath id="1078c3fc94"><path d="M 37 54 L 40 54 L 40 57.839844 L 37 57.839844 Z M 37 54 " clip-rule="nonzero"></path></clipPath></defs><g clip-path="url(#e4cd73f269)"><g clip-path="url(#a615ef6a95)"><path fill="#ffffff" d="M 6.351562 6.351562 L 68.648438 6.351562 L 68.648438 68.648438 L 6.351562 68.648438 Z M 6.351562 6.351562 " fill-opacity="1" fill-rule="nonzero"></path></g></g><g clip-path="url(#cb471f2c4b)"><path fill="#a38062" d="M 47.398438 57.421875 L 53.796875 57.421875 L 49.734375 26.285156 L 44.90625 26.285156 L 44.90625 25.039062 C 44.90625 24.550781 44.859375 24.0625 44.761719 23.582031 C 44.667969 23.101562 44.523438 22.632812 44.335938 22.179688 C 44.148438 21.726562 43.917969 21.296875 43.644531 20.890625 C 43.375 20.480469 43.0625 20.105469 42.71875 19.757812 C 42.371094 19.410156 41.992188 19.101562 41.585938 18.828125 C 41.175781 18.554688 40.746094 18.324219 40.292969 18.136719 C 39.839844 17.949219 39.371094 17.808594 38.890625 17.710938 C 38.410156 17.617188 37.925781 17.566406 37.433594 17.566406 C 36.941406 17.566406 36.457031 17.617188 35.976562 17.710938 C 35.496094 17.808594 35.027344 17.949219 34.574219 18.136719 C 34.121094 18.324219 33.691406 18.554688 33.28125 18.828125 C 32.875 19.101562 32.496094 19.410156 32.148438 19.757812 C 31.800781 20.105469 31.492188 20.480469 31.21875 20.890625 C 30.949219 21.296875 30.71875 21.726562 30.53125 22.179688 C 30.34375 22.632812 30.199219 23.101562 30.105469 23.582031 C 30.007812 24.0625 29.960938 24.550781 29.960938 25.039062 L 29.960938 26.285156 L 25.132812 26.285156 L 21.070312 57.421875 L 34.941406 57.421875 L 34.941406 54.929688 L 23.90625 54.929688 L 27.316406 28.777344 L 47.546875 28.777344 L 50.960938 54.929688 L 47.398438 54.929688 Z M 42.414062 26.285156 L 32.453125 26.285156 L 32.453125 25.039062 C 32.453125 24.714844 32.484375 24.390625 32.546875 24.070312 C 32.613281 23.746094 32.707031 23.4375 32.832031 23.132812 C 32.957031 22.832031 33.109375 22.546875 33.292969 22.273438 C 33.472656 22 33.679688 21.75 33.910156 21.519531 C 34.140625 21.285156 34.394531 21.082031 34.664062 20.898438 C 34.9375 20.71875 35.226562 20.5625 35.527344 20.4375 C 35.828125 20.3125 36.140625 20.21875 36.460938 20.15625 C 36.78125 20.089844 37.105469 20.058594 37.433594 20.058594 C 37.761719 20.058594 38.085938 20.089844 38.40625 20.15625 C 38.726562 20.21875 39.039062 20.3125 39.339844 20.4375 C 39.640625 20.5625 39.929688 20.71875 40.199219 20.898438 C 40.472656 21.082031 40.726562 21.285156 40.957031 21.519531 C 41.1875 21.75 41.394531 22 41.574219 22.273438 C 41.757812 22.546875 41.910156 22.832031 42.035156 23.132812 C 42.160156 23.4375 42.253906 23.746094 42.320312 24.070312 C 42.382812 24.390625 42.414062 24.714844 42.414062 25.039062 Z M 42.414062 26.285156 " fill-opacity="1" fill-rule="nonzero"></path></g><g clip-path="url(#71c4bdf0fb)"><path fill="#a38062" d="M 42.414062 54.929688 L 44.90625 54.929688 L 44.90625 57.421875 L 42.414062 57.421875 Z M 42.414062 54.929688 " fill-opacity="1" fill-rule="nonzero"></path></g><g clip-path="url(#1078c3fc94)"><path fill="#a38062" d="M 37.433594 54.929688 L 39.925781 54.929688 L 39.925781 57.421875 L 37.433594 57.421875 Z M 37.433594 54.929688 " fill-opacity="1" fill-rule="nonzero"></path></g><path fill="#a38062" d="M 37.433594 35.457031 C 36.875 35.09375 36.269531 34.847656 35.617188 34.707031 C 34.964844 34.570312 34.3125 34.554688 33.652344 34.660156 C 32.996094 34.765625 32.378906 34.984375 31.800781 35.320312 C 31.226562 35.652344 30.730469 36.078125 30.308594 36.59375 C 29.890625 37.113281 29.578125 37.6875 29.371094 38.320312 C 29.167969 38.957031 29.082031 39.605469 29.117188 40.269531 C 29.148438 40.933594 29.300781 41.570312 29.570312 42.179688 C 29.84375 42.789062 30.210938 43.328125 30.683594 43.800781 L 37.433594 50.550781 L 44.183594 43.800781 C 44.65625 43.328125 45.027344 42.789062 45.296875 42.179688 C 45.566406 41.570312 45.71875 40.933594 45.753906 40.269531 C 45.789062 39.605469 45.703125 38.953125 45.496094 38.320312 C 45.292969 37.6875 44.980469 37.113281 44.5625 36.59375 C 44.140625 36.074219 43.644531 35.648438 43.066406 35.316406 C 42.492188 34.984375 41.875 34.761719 41.214844 34.660156 C 40.558594 34.554688 39.902344 34.570312 39.25 34.707031 C 38.597656 34.84375 37.992188 35.09375 37.433594 35.457031 Z M 42.421875 42.039062 L 37.433594 47.03125 L 32.441406 42.039062 C 32.171875 41.769531 31.960938 41.453125 31.8125 41.097656 C 31.664062 40.742188 31.59375 40.371094 31.59375 39.984375 C 31.59375 39.601562 31.664062 39.230469 31.8125 38.875 C 31.960938 38.515625 32.171875 38.203125 32.441406 37.929688 C 32.714844 37.65625 33.03125 37.449219 33.386719 37.300781 C 33.742188 37.152344 34.113281 37.078125 34.496094 37.078125 C 34.882812 37.078125 35.253906 37.152344 35.609375 37.300781 C 35.964844 37.449219 36.28125 37.65625 36.554688 37.929688 L 37.433594 38.8125 L 38.3125 37.929688 C 38.585938 37.65625 38.902344 37.449219 39.257812 37.300781 C 39.613281 37.152344 39.984375 37.078125 40.367188 37.078125 C 40.753906 37.078125 41.125 37.152344 41.480469 37.300781 C 41.835938 37.449219 42.152344 37.65625 42.421875 37.929688 C 42.695312 38.203125 42.90625 38.515625 43.054688 38.875 C 43.199219 39.230469 43.273438 39.601562 43.273438 39.984375 C 43.273438 40.371094 43.199219 40.742188 43.054688 41.097656 C 42.90625 41.453125 42.695312 41.769531 42.421875 42.039062 Z M 42.421875 42.039062 " fill-opacity="1" fill-rule="nonzero"></path></svg>