<svg xmlns="http://www.w3.org/2000/svg" xmlns:xlink="http://www.w3.org/1999/xlink" width="100" viewBox="0 0 75 74.999997" height="100" preserveAspectRatio="xMidYMid meet"><defs><clipPath id="91f444029c"><path d="M 6.351562 6.351562 L 68.648438 6.351562 L 68.648438 68.648438 L 6.351562 68.648438 Z M 6.351562 6.351562 " clip-rule="nonzero"></path></clipPath><clipPath id="780ce986b9"><path d="M 37.5 6.351562 C 20.296875 6.351562 6.351562 20.296875 6.351562 37.5 C 6.351562 54.703125 20.296875 68.648438 37.5 68.648438 C 54.703125 68.648438 68.648438 54.703125 68.648438 37.5 C 68.648438 20.296875 54.703125 6.351562 37.5 6.351562 Z M 37.5 6.351562 " clip-rule="nonzero"></path></clipPath><clipPath id="9a4e06b40f"><path d="M 19.03125 16.394531 L 55.78125 16.394531 L 55.78125 58.394531 L 19.03125 58.394531 Z M 19.03125 16.394531 " clip-rule="nonzero"></path></clipPath></defs><g clip-path="url(#91f444029c)"><g clip-path="url(#780ce986b9)"><path fill="#ffffff" d="M 6.351562 6.351562 L 68.648438 6.351562 L 68.648438 68.648438 L 6.351562 68.648438 Z M 6.351562 6.351562 " fill-opacity="1" fill-rule="nonzero"></path></g></g><g clip-path="url(#9a4e06b40f)"><path fill="#5bb671" d="M 55.695312 25.046875 C 55.910156 24.753906 55.886719 24.34375 55.632812 24.082031 L 51.242188 19.496094 C 51.007812 19.253906 50.644531 19.195312 50.347656 19.351562 C 48.691406 20.21875 47.164062 20.425781 45.804688 19.96875 C 43.582031 19.214844 42.476562 16.898438 42.46875 16.875 C 42.347656 16.609375 42.078125 16.4375 41.785156 16.4375 L 33.132812 16.4375 C 32.839844 16.4375 32.570312 16.609375 32.449219 16.875 C 32.4375 16.898438 31.335938 19.214844 29.109375 19.96875 C 27.753906 20.425781 26.226562 20.21875 24.566406 19.351562 C 24.269531 19.195312 23.90625 19.253906 23.675781 19.496094 C 23.675781 19.496094 19.285156 24.082031 19.285156 24.082031 C 19.03125 24.34375 19.003906 24.753906 19.222656 25.046875 C 19.550781 25.492188 27.148438 36.117188 19.3125 49.253906 C 19.175781 49.480469 19.167969 49.761719 19.292969 49.996094 L 22.523438 55.972656 C 22.734375 56.375 23.304688 56.496094 23.65625 56.203125 C 23.886719 56.019531 29.429688 51.761719 36.960938 58.367188 C 37.105469 58.488281 37.28125 58.550781 37.457031 58.550781 C 37.636719 58.550781 37.8125 58.488281 37.953125 58.367188 C 45.488281 51.765625 51.03125 56.019531 51.257812 56.199219 C 51.605469 56.492188 52.1875 56.382812 52.394531 55.972656 C 52.394531 55.972656 55.621094 49.996094 55.621094 49.996094 C 55.746094 49.761719 55.742188 49.480469 55.605469 49.253906 C 47.769531 36.117188 55.367188 25.492188 55.695312 25.046875 Z M 51.453125 54.546875 C 49.527344 53.457031 44.09375 51.324219 37.457031 56.8125 C 34.105469 54.042969 31.0625 53.214844 28.621094 53.214844 C 26.226562 53.214844 24.414062 54.007812 23.460938 54.546875 C 23.460938 54.546875 20.820312 49.65625 20.820312 49.65625 C 27.84375 37.488281 22.296875 27.113281 20.785156 24.6875 L 24.382812 20.933594 C 28.3125 22.910156 32.019531 20.828125 33.582031 17.941406 C 33.582031 17.941406 41.335938 17.941406 41.335938 17.941406 C 42.902344 20.84375 46.621094 22.898438 50.535156 20.933594 C 50.535156 20.933594 54.132812 24.6875 54.132812 24.6875 C 52.617188 27.113281 47.074219 37.488281 54.097656 49.65625 Z M 51.453125 54.546875 " fill-opacity="1" fill-rule="nonzero"></path></g><path fill="#5bb671" d="M 39.332031 52.503906 C 38.707031 52.835938 38.078125 53.21875 37.457031 53.648438 C 36.839844 53.21875 36.210938 52.835938 35.585938 52.503906 C 35.21875 52.308594 34.761719 52.449219 34.566406 52.8125 C 34.371094 53.179688 34.511719 53.636719 34.878906 53.832031 C 35.675781 54.148438 36.71875 55.164062 37.457031 55.320312 C 38.191406 55.167969 39.246094 54.144531 40.039062 53.832031 C 40.902344 53.351562 40.214844 52.058594 39.332031 52.503906 Z M 39.332031 52.503906 " fill-opacity="1" fill-rule="nonzero"></path><path fill="#5bb671" d="M 32.765625 51.316406 C 31.769531 51.003906 30.75 50.804688 29.746094 50.71875 C 28.761719 50.640625 28.632812 52.125 29.617188 52.21875 C 30.515625 52.292969 31.425781 52.472656 32.316406 52.753906 C 32.703125 52.875 33.136719 52.660156 33.257812 52.257812 C 33.382812 51.863281 33.160156 51.441406 32.765625 51.316406 Z M 32.765625 51.316406 " fill-opacity="1" fill-rule="nonzero"></path><path fill="#5bb671" d="M 26.660156 50.8125 C 25.953125 50.917969 25.257812 51.078125 24.585938 51.296875 L 23.703125 49.664062 C 24.058594 48.980469 24.386719 48.285156 24.683594 47.589844 C 25.058594 46.679688 23.707031 46.09375 23.304688 47 C 22.972656 47.773438 22.597656 48.550781 22.1875 49.3125 C 22.066406 49.535156 22.066406 49.804688 22.1875 50.023438 L 23.566406 52.574219 C 23.746094 52.910156 24.148438 53.054688 24.496094 52.921875 C 25.257812 52.628906 26.0625 52.421875 26.878906 52.300781 C 27.855469 52.136719 27.640625 50.691406 26.660156 50.8125 Z M 26.660156 50.8125 " fill-opacity="1" fill-rule="nonzero"></path><path fill="#5bb671" d="M 26.058594 36.019531 C 26.496094 36.019531 26.847656 35.644531 26.8125 35.207031 C 26.707031 33.816406 26.480469 32.414062 26.148438 31.035156 C 25.898438 30.078125 24.46875 30.425781 24.6875 31.390625 C 25 32.6875 25.210938 34.011719 25.3125 35.324219 C 25.339844 35.71875 25.671875 36.019531 26.058594 36.019531 Z M 26.058594 36.019531 " fill-opacity="1" fill-rule="nonzero"></path><path fill="#5bb671" d="M 25.136719 44.136719 C 25.53125 44.242188 25.953125 44.003906 26.054688 43.597656 C 26.410156 42.226562 26.652344 40.824219 26.78125 39.4375 C 26.816406 39.023438 26.511719 38.65625 26.097656 38.617188 C 25.6875 38.578125 25.320312 38.886719 25.28125 39.300781 C 25.164062 40.609375 24.933594 41.929688 24.597656 43.222656 C 24.496094 43.625 24.734375 44.035156 25.136719 44.136719 Z M 25.136719 44.136719 " fill-opacity="1" fill-rule="nonzero"></path><path fill="#5bb671" d="M 27.453125 22.726562 C 26.679688 22.703125 25.878906 22.5625 25.078125 22.300781 C 24.804688 22.210938 24.503906 22.289062 24.304688 22.496094 L 22.460938 24.421875 C 22.234375 24.65625 22.1875 25.015625 22.34375 25.300781 C 22.742188 26.027344 23.113281 26.800781 23.445312 27.601562 C 23.566406 27.890625 23.847656 28.066406 24.140625 28.066406 C 25.765625 27.824219 24.21875 25.882812 23.921875 25.066406 C 23.921875 25.066406 25.070312 23.871094 25.070312 23.871094 C 25.941406 24.011719 28.054688 24.816406 28.183594 23.496094 C 28.195312 23.082031 27.867188 22.738281 27.453125 22.726562 Z M 27.453125 22.726562 " fill-opacity="1" fill-rule="nonzero"></path><path fill="#5bb671" d="M 42.15625 22.371094 C 42.832031 22.394531 43.183594 21.453125 42.628906 21.035156 C 42.007812 20.53125 41.449219 19.941406 40.960938 19.269531 C 40.820312 19.074219 40.59375 18.960938 40.355469 18.960938 C 38.769531 18.964844 36.148438 18.960938 34.5625 18.960938 C 34.320312 18.960938 34.09375 19.074219 33.953125 19.269531 C 33.46875 19.941406 32.910156 20.53125 32.289062 21.035156 C 31.734375 21.453125 32.082031 22.398438 32.761719 22.371094 C 33.621094 22.199219 34.34375 21.109375 34.9375 20.464844 C 34.9375 20.464844 39.980469 20.464844 39.980469 20.464844 C 40.566406 21.105469 41.300781 22.207031 42.15625 22.371094 Z M 42.15625 22.371094 " fill-opacity="1" fill-rule="nonzero"></path><path fill="#5bb671" d="M 49.84375 23.871094 L 50.992188 25.066406 C 50.695312 25.882812 49.152344 27.824219 50.777344 28.066406 C 51.070312 28.066406 51.351562 27.890625 51.46875 27.601562 C 51.804688 26.804688 52.171875 26.03125 52.574219 25.300781 C 52.730469 25.011719 52.683594 24.65625 52.457031 24.421875 L 50.613281 22.496094 C 50.414062 22.289062 50.109375 22.210938 49.835938 22.300781 C 49.035156 22.5625 48.238281 22.707031 47.464844 22.726562 C 47.050781 22.734375 46.722656 23.082031 46.734375 23.496094 C 46.859375 24.808594 48.976562 24.019531 49.84375 23.871094 Z M 49.84375 23.871094 " fill-opacity="1" fill-rule="nonzero"></path><path fill="#5bb671" d="M 48.855469 36.015625 C 49.246094 36.015625 49.574219 35.714844 49.605469 35.320312 C 49.707031 34.007812 49.914062 32.683594 50.230469 31.386719 C 50.445312 30.425781 49.019531 30.074219 48.769531 31.03125 C 48.433594 32.40625 48.210938 33.8125 48.105469 35.203125 C 48.070312 35.640625 48.421875 36.015625 48.855469 36.015625 Z M 48.855469 36.015625 " fill-opacity="1" fill-rule="nonzero"></path><path fill="#5bb671" d="M 49.589844 44.15625 C 50.070312 44.164062 50.445312 43.683594 50.316406 43.21875 C 49.980469 41.925781 49.753906 40.605469 49.632812 39.296875 C 49.535156 38.3125 48.0625 38.445312 48.136719 39.433594 C 48.261719 40.820312 48.503906 42.222656 48.863281 43.59375 C 48.949219 43.933594 49.253906 44.15625 49.589844 44.15625 Z M 49.589844 44.15625 " fill-opacity="1" fill-rule="nonzero"></path><path fill="#5bb671" d="M 50.230469 47.589844 C 50.527344 48.28125 50.855469 48.976562 51.214844 49.664062 L 50.332031 51.296875 C 49.660156 51.078125 48.964844 50.917969 48.257812 50.8125 C 47.277344 50.691406 47.058594 52.136719 48.035156 52.300781 C 48.957031 52.394531 49.8125 52.757812 50.6875 52.96875 C 50.957031 52.96875 51.214844 52.824219 51.351562 52.574219 L 52.730469 50.023438 C 52.847656 49.804688 52.847656 49.535156 52.730469 49.3125 C 52.320312 48.546875 51.945312 47.769531 51.613281 47 C 51.210938 46.097656 49.859375 46.675781 50.230469 47.589844 Z M 50.230469 47.589844 " fill-opacity="1" fill-rule="nonzero"></path><path fill="#5bb671" d="M 45.167969 50.71875 C 44.164062 50.804688 43.148438 51.003906 42.152344 51.316406 C 41.753906 51.4375 41.535156 51.859375 41.65625 52.257812 C 41.757812 52.578125 42.054688 52.785156 42.375 52.785156 C 43.347656 52.566406 44.320312 52.269531 45.296875 52.21875 C 45.710938 52.183594 46.019531 51.820312 45.984375 51.40625 C 45.949219 50.992188 45.578125 50.675781 45.167969 50.71875 Z M 45.167969 50.71875 " fill-opacity="1" fill-rule="nonzero"></path></svg>