<svg xmlns="http://www.w3.org/2000/svg" xmlns:xlink="http://www.w3.org/1999/xlink" width="100" viewBox="0 0 75 74.999997" height="100" preserveAspectRatio="xMidYMid meet"><defs><clipPath id="1c34d35937"><path d="M 6.351562 6.351562 L 68.648438 6.351562 L 68.648438 68.648438 L 6.351562 68.648438 Z M 6.351562 6.351562 " clip-rule="nonzero"></path></clipPath><clipPath id="e9ab2ea1f6"><path d="M 37.5 6.351562 C 20.296875 6.351562 6.351562 20.296875 6.351562 37.5 C 6.351562 54.703125 20.296875 68.648438 37.5 68.648438 C 54.703125 68.648438 68.648438 54.703125 68.648438 37.5 C 68.648438 20.296875 54.703125 6.351562 37.5 6.351562 Z M 37.5 6.351562 " clip-rule="nonzero"></path></clipPath><clipPath id="39aac62319"><path d="M 13.25 17.703125 L 58.25 17.703125 L 58.25 57.269531 L 13.25 57.269531 Z M 13.25 17.703125 " clip-rule="nonzero"></path></clipPath><clipPath id="a27710317a"><path d="M 30.789062 29.925781 L 45.789062 29.925781 L 45.789062 44.925781 L 30.789062 44.925781 Z M 30.789062 29.925781 " clip-rule="nonzero"></path></clipPath></defs><g clip-path="url(#1c34d35937)"><g clip-path="url(#e9ab2ea1f6)"><path fill="#ffffff" d="M 6.351562 6.351562 L 68.648438 6.351562 L 68.648438 68.648438 L 6.351562 68.648438 Z M 6.351562 6.351562 " fill-opacity="1" fill-rule="nonzero"></path></g></g><g clip-path="url(#39aac62319)"><path fill="#ffb21a" d="M 25.648438 22.4375 L 27.683594 25.464844 C 30.523438 22.910156 34.3125 21.347656 38.429688 21.347656 C 47.328125 21.347656 54.570312 28.589844 54.570312 37.484375 C 54.570312 46.386719 47.328125 53.625 38.429688 53.625 C 29.625 53.625 22.480469 46.574219 22.289062 37.816406 L 27.683594 37.816406 L 20.492188 26.222656 L 13.25 37.816406 L 18.691406 37.816406 C 18.878906 48.5625 27.683594 57.269531 38.476562 57.269531 C 49.363281 57.269531 58.261719 48.417969 58.261719 37.484375 C 58.261719 26.554688 49.363281 17.703125 38.429688 17.703125 C 33.554688 17.703125 29.105469 19.5 25.648438 22.4375 " fill-opacity="1" fill-rule="nonzero"></path></g><g clip-path="url(#a27710317a)"><path fill="#ffb21a" d="M 43.464844 38.667969 C 43.464844 38.667969 43.136719 39.773438 42.777344 40.132812 C 42.421875 40.492188 41.316406 40.816406 41.316406 40.816406 C 41.316406 40.816406 42.421875 41.144531 42.777344 41.5 C 43.136719 41.859375 43.464844 42.964844 43.464844 42.964844 C 43.464844 42.964844 43.789062 41.859375 44.148438 41.5 C 44.503906 41.144531 45.609375 40.816406 45.609375 40.816406 C 45.609375 40.816406 44.503906 40.492188 44.148438 40.132812 C 43.789062 39.773438 43.464844 38.667969 43.464844 38.667969 Z M 34.046875 38.550781 C 34.046875 38.550781 33.550781 40.226562 33.007812 40.769531 C 32.464844 41.3125 30.789062 41.808594 30.789062 41.808594 C 30.789062 41.808594 32.464844 42.300781 33.007812 42.84375 C 33.550781 43.386719 34.046875 45.066406 34.046875 45.066406 C 34.046875 45.066406 34.542969 43.386719 35.085938 42.84375 C 35.628906 42.300781 37.304688 41.808594 37.304688 41.808594 C 37.304688 41.808594 35.628906 41.3125 35.085938 40.769531 C 34.542969 40.226562 34.046875 38.550781 34.046875 38.550781 Z M 39.042969 29.929688 C 39.042969 29.929688 38.28125 32.5 37.449219 33.332031 C 36.617188 34.164062 34.046875 34.925781 34.046875 34.925781 C 34.046875 34.925781 36.617188 35.683594 37.449219 36.515625 C 38.28125 37.351562 39.042969 39.921875 39.042969 39.921875 C 39.042969 39.921875 39.800781 37.351562 40.636719 36.515625 C 41.46875 35.683594 44.039062 34.925781 44.039062 34.925781 C 44.039062 34.925781 41.46875 34.164062 40.636719 33.332031 C 39.800781 32.5 39.042969 29.929688 39.042969 29.929688 " fill-opacity="1" fill-rule="evenodd"></path></g></svg>