<?xml version="1.0" standalone="no"?>
<svg xmlns:xlink="http://www.w3.org/1999/xlink" id="wave" style="transform:rotate(0deg); transition: 0.3s" viewBox="0 0 1440 120" version="1.1" xmlns="http://www.w3.org/2000/svg"><defs><linearGradient id="sw-gradient-0" x1="0" x2="0" y1="1" y2="0"><stop stop-color="rgba(0,0,0, 1)" offset="0%"/><stop stop-color="rgba(237.141, 221.472, 213.637, 1)" offset="100%"/></linearGradient></defs><path style="transform:translate(0, 0px); opacity:1 " fill="url(#sw-gradient-0)" d="M0,0L60,18C120,36,240,72,360,80C480,88,600,68,720,66C840,64,960,80,1080,82C1200,84,1320,72,1440,56C1560,40,1680,20,1800,28C1920,36,2040,72,2160,76C2280,80,2400,52,2520,44C2640,36,2760,48,2880,54C3000,60,3120,60,3240,62C3360,64,3480,68,3600,68C3720,68,3840,64,3960,56C4080,48,4200,36,4320,26C4440,16,4560,8,4680,16C4800,24,4920,48,5040,52C5160,56,5280,40,5400,44C5520,48,5640,72,5760,82C5880,92,6000,88,6120,76C6240,64,6360,44,6480,36C6600,28,6720,32,6840,44C6960,56,7080,76,7200,88C7320,100,7440,104,7560,92C7680,80,7800,52,7920,46C8040,40,8160,56,8280,56C8400,56,8520,40,8580,32L8640,24L8640,120L8580,120C8520,120,8400,120,8280,120C8160,120,8040,120,7920,120C7800,120,7680,120,7560,120C7440,120,7320,120,7200,120C7080,120,6960,120,6840,120C6720,120,6600,120,6480,120C6360,120,6240,120,6120,120C6000,120,5880,120,5760,120C5640,120,5520,120,5400,120C5280,120,5160,120,5040,120C4920,120,4800,120,4680,120C4560,120,4440,120,4320,120C4200,120,4080,120,3960,120C3840,120,3720,120,3600,120C3480,120,3360,120,3240,120C3120,120,3000,120,2880,120C2760,120,2640,120,2520,120C2400,120,2280,120,2160,120C2040,120,1920,120,1800,120C1680,120,1560,120,1440,120C1320,120,1200,120,1080,120C960,120,840,120,720,120C600,120,480,120,360,120C240,120,120,120,60,120L0,120Z"/></svg>